<svg xmlns="http://www.w3.org/2000/svg" viewBox="0 0 284.86 324.74">
    <defs>
        <style>
            .cls-1 {
                fill: #4d77cf;
            }

            .cls-2 {
                fill: #4dabcf;
            }
        </style>
    </defs>
    <g id="Layer_1" data-name="Layer 1">
        <polygon class="cls-2" points="132.38 96.4 95.25 77.66 54.49 98 92.63 117.15 132.38 96.4" />
        <polygon class="cls-2" points="149.41 104.99 188.34 124.65 147.95 144.93 109.75 125.75 149.41 104.99" />
        <polygon class="cls-2" points="201.41 77.94 241.41 98 205.63 115.96 166.62 96.28 201.41 77.94" />
        <polygon class="cls-2" points="184.19 69.3 148.18 51.24 112.56 69.02 149.67 87.73 184.19 69.3" />
        <polygon class="cls-2" points="156.04 224.36 156.04 273.5 199.66 251.73 199.62 202.57 156.04 224.36" />
        <polygon class="cls-2" points="199.6 185.41 199.55 136.77 156.04 158.4 156.04 207.06 199.6 185.41" />
        <polygon class="cls-2" points="251.97 176.3 251.97 225.63 214.76 244.19 214.73 195.09 251.97 176.3" />
        <polygon class="cls-2" points="251.97 159.05 251.97 110.71 214.69 129.24 214.72 177.98 251.97 159.05" />
        <path class="cls-1"
            d="M140.64,158.4l-29.38-14.78v63.84S75.32,131,72,124.13c-.43-.89-2.19-1.86-2.64-2.1C62.88,118.65,44,109.09,44,109.09V221.92l26.12,14v-59s35.55,68.32,35.92,69.07,3.92,7.94,7.74,10.47c5.07,3.37,26.84,16.46,26.84,16.46Z" />
    </g>
</svg>